<mxfile host="app.diagrams.net" modified="2023-05-22T11:56:13.312Z" agent="Mozilla/5.0 (Windows NT 10.0; Win64; x64) AppleWebKit/537.36 (KHTML, like Gecko) Chrome/113.0.0.0 Safari/537.36" etag="UMXq0tONkBFEZ0rqb0V7" version="21.3.2" type="device" pages="2">
  <diagram name="login" id="e7e014a7-5840-1c2e-5031-d8a46d1fe8dd">
    <mxGraphModel dx="2163" dy="1298" grid="1" gridSize="10" guides="1" tooltips="1" connect="1" arrows="1" fold="1" page="1" pageScale="1" pageWidth="1169" pageHeight="826" background="none" math="0" shadow="0">
      <root>
        <mxCell id="0" />
        <mxCell id="1" parent="0" />
        <mxCell id="2" value="Actor" style="swimlane;whiteSpace=wrap" parent="1" vertex="1">
          <mxGeometry x="164.5" y="128" width="280" height="570" as="geometry" />
        </mxCell>
        <mxCell id="-8ZnuHl4JHoOOj9CxjV9-56" value="account.service &#xa;login(model: any)}" style="" vertex="1" parent="2">
          <mxGeometry x="85" y="40" width="110" height="50" as="geometry" />
        </mxCell>
        <mxCell id="-8ZnuHl4JHoOOj9CxjV9-57" value="account.service &#xa;setCurrentUser&#xa;(user: User)}" style="" vertex="1" parent="2">
          <mxGeometry x="57.5" y="142" width="165" height="50" as="geometry" />
        </mxCell>
        <mxCell id="-8ZnuHl4JHoOOj9CxjV9-58" value="" style="elbow=horizontal;verticalAlign=bottom;endArrow=open;endSize=8;strokeColor=#FF0000;endFill=1;rounded=0" edge="1" parent="2" source="-8ZnuHl4JHoOOj9CxjV9-56" target="-8ZnuHl4JHoOOj9CxjV9-57">
          <mxGeometry x="110" y="50" as="geometry">
            <mxPoint x="365.5" y="75" as="targetPoint" />
            <mxPoint x="205.5" y="75" as="sourcePoint" />
          </mxGeometry>
        </mxCell>
        <mxCell id="-8ZnuHl4JHoOOj9CxjV9-59" value="account.service &#xa;getDecodedToken&#xa;(token: string)}" style="" vertex="1" parent="2">
          <mxGeometry x="57.5" y="222" width="165" height="50" as="geometry" />
        </mxCell>
        <mxCell id="-8ZnuHl4JHoOOj9CxjV9-60" value="presense.service &#xa;createHubConnection&#xa;(user: User)}" style="" vertex="1" parent="2">
          <mxGeometry x="75.5" y="312" width="165" height="50" as="geometry" />
        </mxCell>
        <mxCell id="-8ZnuHl4JHoOOj9CxjV9-66" value="room.service getRooms&#xa;(pageNumber, pageSize)}" style="" vertex="1" parent="2">
          <mxGeometry x="75.5" y="392" width="165" height="50" as="geometry" />
        </mxCell>
        <mxCell id="-8ZnuHl4JHoOOj9CxjV9-72" value="" style="elbow=horizontal;verticalAlign=bottom;endArrow=open;endSize=8;strokeColor=#FF0000;endFill=1;rounded=0" edge="1" parent="2" source="-8ZnuHl4JHoOOj9CxjV9-57" target="-8ZnuHl4JHoOOj9CxjV9-59">
          <mxGeometry x="-44.5" y="-68" as="geometry">
            <mxPoint x="150" y="152" as="targetPoint" />
            <mxPoint x="150" y="100" as="sourcePoint" />
          </mxGeometry>
        </mxCell>
        <mxCell id="3" value="API" style="swimlane;whiteSpace=wrap;startSize=23;" parent="1" vertex="1">
          <mxGeometry x="444.5" y="128" width="280" height="570" as="geometry" />
        </mxCell>
        <mxCell id="7" value="Api/Acount: &#xa;Login(LoginDto)" style="" parent="3" vertex="1">
          <mxGeometry x="75.5" y="40" width="110" height="50" as="geometry" />
        </mxCell>
        <mxCell id="-8ZnuHl4JHoOOj9CxjV9-61" value="Hub/Presence: &#xa;OnConnectedAsync()" style="" vertex="1" parent="3">
          <mxGeometry x="35.5" y="302" width="165" height="50" as="geometry" />
        </mxCell>
        <mxCell id="-8ZnuHl4JHoOOj9CxjV9-70" value="Api/Room:&#xa;Â GetAllRooms(RoomParams)" style="" vertex="1" parent="3">
          <mxGeometry x="35.5" y="392" width="165" height="50" as="geometry" />
        </mxCell>
        <mxCell id="4" value="Hub" style="swimlane;whiteSpace=wrap" parent="1" vertex="1">
          <mxGeometry x="724.5" y="128" width="280" height="570" as="geometry">
            <mxRectangle x="724.5" y="128" width="60" height="30" as="alternateBounds" />
          </mxGeometry>
        </mxCell>
        <mxCell id="-8ZnuHl4JHoOOj9CxjV9-65" value="Tracker/Presence: &#xa;UserConnected&#xa;(UserConnectionDto, connectionId)" style="" vertex="1" parent="4">
          <mxGeometry x="57.5" y="302" width="165" height="50" as="geometry" />
        </mxCell>
        <mxCell id="-8ZnuHl4JHoOOj9CxjV9-41" value="Tracker" style="swimlane;whiteSpace=wrap" vertex="1" parent="1">
          <mxGeometry x="1004.5" y="128" width="280" height="570" as="geometry" />
        </mxCell>
        <mxCell id="-8ZnuHl4JHoOOj9CxjV9-47" value="Repo" style="swimlane;whiteSpace=wrap" vertex="1" parent="1">
          <mxGeometry x="1564.5" y="128" width="280" height="570" as="geometry" />
        </mxCell>
        <mxCell id="-8ZnuHl4JHoOOj9CxjV9-74" value="room.service &#xa;getRooms&#xa;(pageNumber, pageSize)}" style="" vertex="1" parent="-8ZnuHl4JHoOOj9CxjV9-47">
          <mxGeometry x="85" y="392" width="110" height="50" as="geometry" />
        </mxCell>
        <mxCell id="-8ZnuHl4JHoOOj9CxjV9-51" value="Service" style="swimlane;whiteSpace=wrap" vertex="1" parent="1">
          <mxGeometry x="1284.5" y="128" width="280" height="570" as="geometry" />
        </mxCell>
        <mxCell id="8" value="Service/Token: &#xa;CreateTokenAsync&#xa;(AppUser)" style="" parent="-8ZnuHl4JHoOOj9CxjV9-51" vertex="1">
          <mxGeometry x="45.5" y="40" width="110" height="50" as="geometry" />
        </mxCell>
        <mxCell id="6" value="" style="elbow=horizontal;verticalAlign=bottom;endArrow=open;endSize=8;strokeColor=#FF0000;endFill=1;rounded=0" parent="1" source="-8ZnuHl4JHoOOj9CxjV9-56" target="7" edge="1">
          <mxGeometry x="264.5" y="168" as="geometry">
            <mxPoint x="279.5" y="238" as="targetPoint" />
            <mxPoint x="319.5" y="193" as="sourcePoint" />
          </mxGeometry>
        </mxCell>
        <mxCell id="9" value="" style="endArrow=open;strokeColor=#FF0000;endFill=1;rounded=0" parent="1" source="7" target="8" edge="1">
          <mxGeometry relative="1" as="geometry" />
        </mxCell>
        <mxCell id="-8ZnuHl4JHoOOj9CxjV9-71" value="Other actor" style="swimlane;whiteSpace=wrap" vertex="1" parent="1">
          <mxGeometry x="1844.5" y="128" width="280" height="570" as="geometry" />
        </mxCell>
      </root>
    </mxGraphModel>
  </diagram>
  <diagram name="Copy of login" id="aBaK2xoqv5gYhradriTY">
    <mxGraphModel dx="1298" dy="779" grid="1" gridSize="10" guides="1" tooltips="1" connect="1" arrows="1" fold="1" page="1" pageScale="1" pageWidth="1169" pageHeight="826" background="none" math="0" shadow="0">
      <root>
        <mxCell id="EyjbYn9G8KFN57_fWncN-0" />
        <mxCell id="EyjbYn9G8KFN57_fWncN-1" parent="EyjbYn9G8KFN57_fWncN-0" />
        <mxCell id="EyjbYn9G8KFN57_fWncN-2" value="Actor" style="swimlane;whiteSpace=wrap" vertex="1" parent="EyjbYn9G8KFN57_fWncN-1">
          <mxGeometry x="164.5" y="128" width="280" height="570" as="geometry" />
        </mxCell>
        <mxCell id="EyjbYn9G8KFN57_fWncN-3" value="chat-hub.service &#xa;createHubConnection&#xa;(user: User, roomId: string)}" style="" vertex="1" parent="EyjbYn9G8KFN57_fWncN-2">
          <mxGeometry x="60" y="40" width="162.5" height="50" as="geometry" />
        </mxCell>
        <mxCell id="EyjbYn9G8KFN57_fWncN-4" value="account.service &#xa;setCurrentUser&#xa;(user: User)}" style="" vertex="1" parent="EyjbYn9G8KFN57_fWncN-2">
          <mxGeometry x="57.5" y="142" width="165" height="50" as="geometry" />
        </mxCell>
        <mxCell id="EyjbYn9G8KFN57_fWncN-5" value="" style="elbow=horizontal;verticalAlign=bottom;endArrow=open;endSize=8;strokeColor=#FF0000;endFill=1;rounded=0" edge="1" parent="EyjbYn9G8KFN57_fWncN-2" source="EyjbYn9G8KFN57_fWncN-3" target="EyjbYn9G8KFN57_fWncN-4">
          <mxGeometry x="110" y="50" as="geometry">
            <mxPoint x="365.5" y="75" as="targetPoint" />
            <mxPoint x="205.5" y="75" as="sourcePoint" />
          </mxGeometry>
        </mxCell>
        <mxCell id="EyjbYn9G8KFN57_fWncN-6" value="account.service &#xa;getDecodedToken&#xa;(token: string)}" style="" vertex="1" parent="EyjbYn9G8KFN57_fWncN-2">
          <mxGeometry x="57.5" y="222" width="165" height="50" as="geometry" />
        </mxCell>
        <mxCell id="EyjbYn9G8KFN57_fWncN-7" value="presense.service &#xa;createHubConnection&#xa;(user: User)}" style="" vertex="1" parent="EyjbYn9G8KFN57_fWncN-2">
          <mxGeometry x="75.5" y="312" width="165" height="50" as="geometry" />
        </mxCell>
        <mxCell id="EyjbYn9G8KFN57_fWncN-8" value="room.service getRooms&#xa;(pageNumber, pageSize)}" style="" vertex="1" parent="EyjbYn9G8KFN57_fWncN-2">
          <mxGeometry x="75.5" y="392" width="165" height="50" as="geometry" />
        </mxCell>
        <mxCell id="EyjbYn9G8KFN57_fWncN-9" value="" style="elbow=horizontal;verticalAlign=bottom;endArrow=open;endSize=8;strokeColor=#FF0000;endFill=1;rounded=0" edge="1" parent="EyjbYn9G8KFN57_fWncN-2" source="EyjbYn9G8KFN57_fWncN-4" target="EyjbYn9G8KFN57_fWncN-6">
          <mxGeometry x="-44.5" y="-68" as="geometry">
            <mxPoint x="150" y="152" as="targetPoint" />
            <mxPoint x="150" y="100" as="sourcePoint" />
          </mxGeometry>
        </mxCell>
        <mxCell id="EyjbYn9G8KFN57_fWncN-10" value="API" style="swimlane;whiteSpace=wrap;startSize=23;" vertex="1" parent="EyjbYn9G8KFN57_fWncN-1">
          <mxGeometry x="444.5" y="128" width="280" height="570" as="geometry" />
        </mxCell>
        <mxCell id="EyjbYn9G8KFN57_fWncN-11" value="Api/Acount: &#xa;Login(LoginDto)" style="" vertex="1" parent="EyjbYn9G8KFN57_fWncN-10">
          <mxGeometry x="75.5" y="40" width="110" height="50" as="geometry" />
        </mxCell>
        <mxCell id="EyjbYn9G8KFN57_fWncN-12" value="Hub/Presence: &#xa;OnConnectedAsync()" style="" vertex="1" parent="EyjbYn9G8KFN57_fWncN-10">
          <mxGeometry x="35.5" y="302" width="165" height="50" as="geometry" />
        </mxCell>
        <mxCell id="EyjbYn9G8KFN57_fWncN-13" value="Api/Room:&#xa;Â GetAllRooms(RoomParams)" style="" vertex="1" parent="EyjbYn9G8KFN57_fWncN-10">
          <mxGeometry x="35.5" y="392" width="165" height="50" as="geometry" />
        </mxCell>
        <mxCell id="EyjbYn9G8KFN57_fWncN-14" value="Hub" style="swimlane;whiteSpace=wrap" vertex="1" parent="EyjbYn9G8KFN57_fWncN-1">
          <mxGeometry x="724.5" y="128" width="280" height="570" as="geometry">
            <mxRectangle x="724.5" y="128" width="60" height="30" as="alternateBounds" />
          </mxGeometry>
        </mxCell>
        <mxCell id="EyjbYn9G8KFN57_fWncN-15" value="Tracker/Presence: &#xa;UserConnected&#xa;(UserConnectionDto, connectionId)" style="" vertex="1" parent="EyjbYn9G8KFN57_fWncN-14">
          <mxGeometry x="57.5" y="302" width="165" height="50" as="geometry" />
        </mxCell>
        <mxCell id="EyjbYn9G8KFN57_fWncN-16" value="Tracker" style="swimlane;whiteSpace=wrap" vertex="1" parent="EyjbYn9G8KFN57_fWncN-1">
          <mxGeometry x="1004.5" y="128" width="280" height="570" as="geometry" />
        </mxCell>
        <mxCell id="EyjbYn9G8KFN57_fWncN-17" value="Repo" style="swimlane;whiteSpace=wrap" vertex="1" parent="EyjbYn9G8KFN57_fWncN-1">
          <mxGeometry x="1564.5" y="128" width="280" height="570" as="geometry" />
        </mxCell>
        <mxCell id="EyjbYn9G8KFN57_fWncN-18" value="room.service &#xa;getRooms&#xa;(pageNumber, pageSize)}" style="" vertex="1" parent="EyjbYn9G8KFN57_fWncN-17">
          <mxGeometry x="85" y="392" width="110" height="50" as="geometry" />
        </mxCell>
        <mxCell id="EyjbYn9G8KFN57_fWncN-19" value="Service" style="swimlane;whiteSpace=wrap" vertex="1" parent="EyjbYn9G8KFN57_fWncN-1">
          <mxGeometry x="1284.5" y="128" width="280" height="570" as="geometry" />
        </mxCell>
        <mxCell id="EyjbYn9G8KFN57_fWncN-20" value="Service/Token: &#xa;CreateTokenAsync&#xa;(AppUser)" style="" vertex="1" parent="EyjbYn9G8KFN57_fWncN-19">
          <mxGeometry x="45.5" y="40" width="110" height="50" as="geometry" />
        </mxCell>
        <mxCell id="EyjbYn9G8KFN57_fWncN-21" value="" style="elbow=horizontal;verticalAlign=bottom;endArrow=open;endSize=8;strokeColor=#FF0000;endFill=1;rounded=0" edge="1" parent="EyjbYn9G8KFN57_fWncN-1" source="EyjbYn9G8KFN57_fWncN-3" target="EyjbYn9G8KFN57_fWncN-11">
          <mxGeometry x="264.5" y="168" as="geometry">
            <mxPoint x="279.5" y="238" as="targetPoint" />
            <mxPoint x="319.5" y="193" as="sourcePoint" />
          </mxGeometry>
        </mxCell>
        <mxCell id="EyjbYn9G8KFN57_fWncN-22" value="" style="endArrow=open;strokeColor=#FF0000;endFill=1;rounded=0" edge="1" parent="EyjbYn9G8KFN57_fWncN-1" source="EyjbYn9G8KFN57_fWncN-11" target="EyjbYn9G8KFN57_fWncN-20">
          <mxGeometry relative="1" as="geometry" />
        </mxCell>
        <mxCell id="EyjbYn9G8KFN57_fWncN-23" value="Other actor" style="swimlane;whiteSpace=wrap" vertex="1" parent="EyjbYn9G8KFN57_fWncN-1">
          <mxGeometry x="1844.5" y="128" width="280" height="570" as="geometry" />
        </mxCell>
        <mxCell id="9DorBd3G0EENrYIRBJBd-1" value="presense.service &#xa;hubConnection.on(&#39;CountMemberInGroup&#39;, &#xa;({ roomId, countMember })}" style="" vertex="1" parent="EyjbYn9G8KFN57_fWncN-23">
          <mxGeometry x="25.5" y="52" width="235.5" height="50" as="geometry" />
        </mxCell>
      </root>
    </mxGraphModel>
  </diagram>
</mxfile>
